inDegrees=no
num_controls=7
num_derivatives=13
num_iterations=125
num_multipliers=7
num_parameters=0
num_slacks=7
num_states=26
objective=0.448404
objective_accelerations=0.049007
objective_balance=0.007347
objective_effort=0.036237
objective_height=0.350873
objective_ligament=0.004939
solver_duration=1776.902722
status=Solve_Succeeded
success=true
DataType=double
version=3
OpenSimVersion=4.5
endheader
time	/jointset/ground_pelvis/pelvis_tilt/value	/jointset/ground_pelvis/pelvis_tx/value	/jointset/ground_pelvis/pelvis_ty/value	/jointset/hip_l/hip_flexion_l/value	/jointset/hip_l/hip_adduction_l/value	/jointset/hip_l/hip_rotation_l/value	/jointset/back/lumbar_extension/value	/jointset/patellofemoral_l/patellar_flexion_l/value	/jointset/knee_l/knee_flexion_l/value	/jointset/knee_l/knee_adduction_l/value	/jointset/knee_l/knee_rotation_l/value	/jointset/ankle_l/ankle_angle_l/value	/jointset/subtalar_l/subtalar_angle_l/value	/jointset/ground_pelvis/pelvis_tilt/speed	/jointset/ground_pelvis/pelvis_tx/speed	/jointset/ground_pelvis/pelvis_ty/speed	/jointset/hip_l/hip_flexion_l/speed	/jointset/hip_l/hip_adduction_l/speed	/jointset/hip_l/hip_rotation_l/speed	/jointset/back/lumbar_extension/speed	/jointset/patellofemoral_l/patellar_flexion_l/speed	/jointset/knee_l/knee_flexion_l/speed	/jointset/knee_l/knee_adduction_l/speed	/jointset/knee_l/knee_rotation_l/speed	/jointset/ankle_l/ankle_angle_l/speed	/jointset/subtalar_l/subtalar_angle_l/speed	/forceset/tau_hip_flexion_l	/forceset/tau_hip_adduction_l	/forceset/tau_hip_rotation_l	/forceset/tau_knee_flexion_l	/forceset/tau_ankle_angle_l	/forceset/tau_subtalar_angle_l	/forceset/tau_lumbar_extension	lambda_cid13_p0	lambda_cid13_p1	lambda_cid13_p2	lambda_cid13_p3	lambda_cid13_p4	lambda_cid13_p5	lambda_cid14_p0	/jointset/ground_pelvis/pelvis_tilt/accel	/jointset/ground_pelvis/pelvis_tx/accel	/jointset/ground_pelvis/pelvis_ty/accel	/jointset/hip_l/hip_flexion_l/accel	/jointset/hip_l/hip_adduction_l/accel	/jointset/hip_l/hip_rotation_l/accel	/jointset/back/lumbar_extension/accel	/jointset/patellofemoral_l/patellar_flexion_l/accel	/jointset/knee_l/knee_flexion_l/accel	/jointset/knee_l/knee_adduction_l/accel	/jointset/knee_l/knee_rotation_l/accel	/jointset/ankle_l/ankle_angle_l/accel	/jointset/subtalar_l/subtalar_angle_l/accel	gamma_cid13_p0	gamma_cid13_p1	gamma_cid13_p2	gamma_cid13_p3	gamma_cid13_p4	gamma_cid13_p5	gamma_cid14_p0
0.5	-0.4414860516456199	-0.07188516558358106	0.7655385703391145	1.252177249409175	-0.3097090496302436	-0.04824984516361683	-0.3285375240382403	0.6826307726460421	0.6826307726461937	-0.173392786945469	0.1744158537675964	0.03773112601160564	-0.04882132942603114	-0.7307357422400546	-0.2672564130458287	-0.4889897209343551	2.349719802241323	-0.03476249439551938	0.6146184538610127	-0.6227417510037275	1.765050788764528	1.765050788764598	-0.005769946957328664	0.001793062466201619	0.2398801452911827	-0.008294502797892811	-0.2423141758989194	0.01397142463024061	-0.02142855628450945	-0.2031540267863253	0.1397531940585141	0.04597376543800939	0.2186104601244099	6.16941280051759	-23.83629439724312	6.584210792357413	-5.050426420870328	-607.5210466942965	-62.66696897735126	-28.66937940738883	0.6080542701411007	0.6851405279047524	-0.3169059438909838	-1.493955435915359	0.5972479188167862	-0.2871086179737782	1.758204777775441	-1.079022522155357	-1.07902252215554	0.03310441336859739	-0.03297259194468999	-0.1299673433610455	0.5770536791944489	-2.579439713701873e-07	-8.188382936457043e-07	1.28441587557089e-06	5.662249219613085e-08	-3.47182655502246e-07	1.277666493403692e-08	-2.969690927621324e-07
0.51	-0.4487614460001303	-0.07452318633022401	0.7606338482453878	1.275595625588273	-0.3100282978358719	-0.04211809766882903	-0.3346771104981076	0.7002244811656076	0.7002244811657193	-0.1734517964745138	0.1744325709681183	0.04012242227249231	-0.04887705355034692	-0.7242506634046112	-0.2603271709182355	-0.4918561743002706	2.333656220541731	-0.02909728100265542	0.6116320536628531	-0.6051154152279768	1.753459908300061	1.753459908300113	-0.006010007609971104	0.001567906523609133	0.2383295717540513	-0.002861631155506003	-0.2503064474363554	0.01460228284625257	-0.02154128319424493	-0.2044330263079222	0.1395463715069985	0.04650044511170913	0.2247916725346604	5.864140105706156	-23.90833158171186	6.477760145481031	-4.980603810119239	-611.9119748024239	-62.26383960997534	-27.6495869323038	0.6825651557605602	0.6999244416015599	-0.2568131135863627	-1.707489582609125	0.5495158460004445	-0.3195500372198519	1.773866838736655	-1.233706335988118	-1.233706335990624	-0.04931048094970701	-0.01499693203169275	-0.1750333921555151	0.5246330870845415	-3.143020950553885e-07	-6.474812343096067e-07	1.55739046509097e-06	1.211762453845774e-07	-3.728668660161192e-07	6.803163398590932e-08	-3.209889076599416e-07
0.52	-0.4559692234731831	-0.077091292978308	0.7557034020018731	1.298844379941249	-0.3102912223482758	-0.03601924303931927	-0.340638629827965	0.7176953637750493	0.7176953637751214	-0.1735125564453578	0.1744474946418922	0.04249672659135437	-0.04887880312217408	-0.7172123659485834	-0.2532735933340435	-0.494134550891967	2.315795437017015	-0.02349775575062145	0.6080398808053806	-0.5871283250017549	1.740485606739767	1.740485606739803	-0.006120035317375196	0.00143435711640993	0.2364817568862669	0.002500407699830791	-0.2582987189737923	0.01523314106226435	-0.02165401010397182	-0.2057120258295202	0.139339548955483	0.04702712478540867	0.2309728849449101	5.554753880090731	-23.98336370017865	6.37603145953867	-4.927421175895927	-616.3877212373037	-61.93943811970508	-26.62482593575504	0.7186979942579902	0.7100076192245309	-0.1992905890471418	-1.853395800940469	0.584110290650791	-0.4082631498363691	1.830355667869716	-1.355706741320507	-1.355706741320478	0.05911100241626759	-0.01465128486603674	-0.1894156094916568	0.5628871217844471	-3.052502826010505e-07	-5.690869170962229e-07	1.526529844796448e-06	1.277780629354231e-07	-3.523205429567143e-07	1.014504844549153e-07	-3.078350405306057e-07
0.53	-0.463103990210668	-0.07958831737555108	0.7507531323518148	1.321905781900878	-0.3104984736742005	-0.02995890541851872	-0.346418542385535	0.7350296448576676	0.7350296448578463	-0.1735738679204723	0.1744611961295075	0.04485110532951983	-0.04882727967567556	-0.7096540931431722	-0.246117077038753	-0.4958178855785215	2.296192700255998	-0.01797408636266187	0.6039567136040248	-0.5688086015293669	1.726139406793197	1.726139406793239	-0.006147500478752811	0.001304656192688643	0.2343436276749865	0.007780778386932517	-0.266122789312768	0.01563674328156677	-0.0217408853514906	-0.2071204728242236	0.1392242830295619	0.04738645255298213	0.2369765986393303	5.270086863919022	-23.99143098612281	6.265211279177564	-4.833468246564576	-620.8389470900439	-61.53096796683955	-25.60024155123261	0.7873887863602294	0.7206312451913651	-0.1376991829901849	-2.057595219128615	0.5331227644482617	-0.4192496112768178	1.839618434353076	-1.508696884739931	-1.508696884738988	-0.03448471864208866	-0.0126437975888496	-0.2335637327241519	0.5069942687937024	-2.815062078850971e-07	-5.142690334053525e-07	1.424373067400501e-06	1.187653198752457e-07	-3.207344894315394e-07	1.225064738900234e-07	-2.863565760840526e-07
0.54	-0.470160574847563	-0.08201334508773926	0.7457890604999848	1.344762379971808	-0.3106511628059296	-0.0239415806909301	-0.3520138901588952	0.752213539888137	0.7522135398884227	-0.173635615935845	0.1744734977475936	0.04718259234441687	-0.04872367607698187	-0.7015759458306597	-0.2388742563230604	-0.4968949912462984	2.27483465927713	-0.01258531691151311	0.5994373021630037	-0.5502153681597896	1.710408396310041	1.710408396310089	-0.006207343369222938	0.001154383210420269	0.2319034122325891	0.0129164381388611	-0.2739468596517445	0.01604034550086867	-0.0218277605989994	-0.2085289198189284	0.1391090171036407	0.04774578032055502	0.2429803123337498	4.981350875530715	-24.00228845310066	6.158837593593838	-4.757161981770848	-625.374907555697	-61.1962921283875	-24.57634318184569	0.8226728956782337	0.7272685033049286	-0.07804478529160012	-2.204456644510429	0.5571303032886308	-0.495511997769394	1.885057647307583	-1.632668848637721	-1.63266884863764	0.05263545659776595	-0.01876569657545833	-0.2498328557150754	0.5339449347498191	-2.415068642839521e-07	-4.855357144627952e-07	1.243335435339148e-06	9.247689273478724e-08	-2.769342660293423e-07	1.29884404308904e-07	-2.556679188610039e-07
0.55	-0.4771339144869357	-0.08436558567975985	0.7408172463419135	1.367396963845661	-0.3107504580801674	-0.01797195626464245	-0.3574219850572213	0.7692334965967694	0.7692334965968431	-0.173697481605031	0.1744843854324166	0.04948831977069433	-0.04856923193596611	-0.6930109552313866	-0.2315658643368339	-0.4973650720172643	2.251801980018422	-0.007300816732753446	0.594414740085763	-0.5313712779452682	1.693361722876817	1.693361722876804	-0.006169975225563534	0.001025352680468482	0.2291953026547118	0.01794345530737554	-0.2815765312303369	0.01627863473021016	-0.02188910545267298	-0.2099847079717626	0.1390153551434177	0.0479374347266137	0.2487804795117813	4.700039101874205	-23.94243144080847	6.04211017803068	-4.634005746611106	-629.8085888696494	-60.76279494802931	-23.55383403974063	0.8855378910970676	0.7338398354637162	-0.01612507904049606	-2.394727959935692	0.509951473715917	-0.5167672568050852	1.888934742548992	-1.773802185879303	-1.773802185888498	-0.02137592142660171	-0.009890912476218925	-0.2883135951604	0.4826807446885644	-2.110505081883389e-07	-4.467965940889333e-07	1.110375012759489e-06	7.486884386482385e-08	-2.410682176732546e-07	1.394771021911038e-07	-2.310163236519127e-07
0.5600000000000001	-0.4840191790705065	-0.08664449929408172	0.7358438043049242	1.38979281004825	-0.3107977400329083	-0.0120547852479474	-0.3626406690465973	0.7860763594520267	0.7860763594518878	-0.1737591062757156	0.1744939989756859	0.0517655633839258	-0.04836539749590794	-0.6839609346703054	-0.2242088607833191	-0.4972205670298858	2.227087125024327	-0.00218265261214265	0.5889466202443757	-0.5123331863697639	1.674989625635011	1.674989625634938	-0.006159143668969023	0.0008995548996695668	0.2262066496233808	0.02279449794734248	-0.2892062028089288	0.01651692395955291	-0.02195045030634986	-0.2114404961245958	0.1389216931831952	0.04812908913267378	0.254580646689813	4.413163084972916	-23.88431080423762	5.92875638196662	-4.518479485854483	-634.3451126666326	-60.39255225615587	-22.53374687084304	0.919678888039819	0.7369908167626156	0.04487236637728731	-2.540891791587557	0.5238630916588586	-0.5846235505986825	1.923857919504124	-1.897753610353959	-1.897753610353889	0.04732813918478873	-0.01811914674488902	-0.3059415464058263	0.4987500290403198	-1.920457370993634e-07	-3.960505119975062e-07	1.03510724155786e-06	6.767724891945424e-08	-2.147231793724978e-07	1.517275210292866e-07	-2.136092028595703e-07
0.5700000000000001	-0.4908116377952327	-0.08884966543025484	0.7308748744114782	1.411933381913094	-0.3107945407670645	-0.006194547352283431	-0.3676680547107263	0.8027290877209456	0.8027290877207957	-0.1738203930786071	0.1745023299804342	0.05401164401034739	-0.04811378226386558	-0.6744554130643032	-0.216822113743457	-0.496462023344405	2.200759373805291	0.00279370640371986	0.5830272814214069	-0.4931237780677123	1.655345249699693	1.655345249699619	-0.006096317276947131	0.0007688792940276967	0.2229680729532493	0.02749825453440236	-0.2966197568914758	0.01660555435408529	-0.02198535393926993	-0.2128933497263817	0.1388161669416151	0.04818487799515495	0.2601598546634771	4.127428409385893	-23.768011943997	5.806844539970579	-4.362125171212092	-638.7276141007433	-59.9447047032133	-21.51726402796549	0.9772744078783671	0.7398672756292192	0.1068136526868569	-2.718926471511409	0.4801120773445502	-0.6068195968289893	1.922507543803315	-2.02935559993912	-2.029355599939349	-0.013983279838582	-0.0104223311633407	-0.3390223202098278	0.4515865573101665	-1.734087038486282e-07	-3.47295987635759e-07	9.593632061035881e-07	6.076818739526104e-08	-1.897938389579957e-07	1.610887542955828e-07	-1.962267723502607e-07
0.58	-0.4975067841816992	-0.09098089397042312	0.7259166236114976	1.433802634328856	-0.3107424599569031	-0.0003957489545852838	-0.3725027412401852	0.8191790570275479	0.8191790570273867	-0.1738810002513879	0.1745093781163884	0.05622409755148911	-0.04781604984919835	-0.6644984670183838	-0.2094213415823465	-0.4950847483367884	2.172823235208266	0.007593656251366168	0.5766587206511173	-0.4737933594357558	1.634437833171639	1.634437833171563	-0.006023217646903857	0.000642981140805747	0.2194812325673973	0.03201793447231604	-0.3040333109740224	0.01669418474861874	-0.02202025757219165	-0.214346203328167	0.1387106407000353	0.04824066685763732	0.2657390626371415	3.835048673601937	-23.65294024679493	5.687859583723482	-4.207513345649594	-643.2258179361087	-59.55499258090823	-20.50582765711487	1.00996377602325	0.739795841012295	0.1686186308044508	-2.862569267185185	0.4885812580156201	-0.6744679400628494	1.948059985485084	-2.150361728901255	-2.150361728901277	0.04938278678906692	-0.01716365626091017	-0.355594289549927	0.4619346992110832	-1.552505849918806e-07	-3.011351198522002e-07	8.82998919529596e-07	5.422707637306511e-08	-1.667081981162907e-07	1.666873272822129e-07	-1.788764966281567e-07
